<svg width="376" height="57" viewBox="0 0 376 57" fill="none" xmlns="http://www.w3.org/2000/svg">
<path d="M15.16 56.92C11.64 56.92 8.792 56.28 6.616 55C4.504 53.72 2.968 51.992 2.008 49.816C1.048 47.576 0.568 45.08 0.568 42.328C0.568 38.936 1.208 35.416 2.488 31.768C3.768 28.056 5.528 24.504 7.768 21.112C10.008 17.72 12.568 14.68 15.448 11.992C18.392 9.24 21.528 7.064 24.856 5.464C28.248 3.864 31.672 3.064 35.128 3.064C38.968 3.064 41.784 3.928 43.576 5.656C45.368 7.384 46.264 9.464 46.264 11.896C46.264 13.048 46.072 14.264 45.688 15.544C45.24 16.952 44.696 18.424 44.056 19.96C43.416 21.432 42.84 22.776 42.328 23.992C41.816 25.144 41.464 25.976 41.272 26.488C40.248 26.488 39.544 26.2 39.16 25.624C38.776 25.048 38.584 24.28 38.584 23.32C38.584 22.232 38.808 20.952 39.256 19.48C39.704 18.008 40.216 16.568 40.792 15.16C41.56 13.496 41.944 11.896 41.944 10.36C41.944 8.888 41.528 7.704 40.696 6.808C39.928 5.848 38.68 5.368 36.952 5.368C33.56 5.368 30.328 6.264 27.256 8.056C24.248 9.848 21.464 12.216 18.904 15.16C16.408 18.04 14.232 21.208 12.376 24.664C10.584 28.12 9.176 31.576 8.152 35.032C7.128 38.424 6.616 41.496 6.616 44.248C6.616 47.32 7.224 49.848 8.44 51.832C9.72 53.816 12.12 54.808 15.64 54.808C18.456 54.808 21.08 54.04 23.512 52.504C26.008 50.968 28.344 48.824 30.52 46.072C31.416 44.984 32.152 43.704 32.728 42.232C33.368 40.696 33.72 39.32 33.784 38.104C32.696 38.232 31.544 38.36 30.328 38.488C29.112 38.552 27.896 38.584 26.68 38.584C25.336 38.584 24.056 38.52 22.84 38.392C21.624 38.2 20.6 37.912 19.768 37.528C18.68 37.016 18.104 36.248 18.04 35.224C18.04 35.224 18.296 35.256 18.808 35.32C19.384 35.32 20.088 35.32 20.92 35.32C21.496 35.32 22.136 35.32 22.84 35.32C23.544 35.256 24.28 35.192 25.048 35.128C26.2 35 27.576 34.84 29.176 34.648C30.84 34.392 32.472 34.136 34.072 33.88C35.736 33.624 37.144 33.432 38.296 33.304C39.512 33.112 40.248 33.016 40.504 33.016C44.024 33.016 45.976 34.232 46.36 36.664C45.784 36.472 45.176 36.376 44.536 36.376C43.64 36.376 42.616 36.504 41.464 36.76C40.376 37.016 39 37.304 37.336 37.624C37.464 37.88 37.528 38.136 37.528 38.392C37.528 38.648 37.528 38.936 37.528 39.256C37.528 42.008 36.76 44.472 35.224 46.648C33.752 48.824 31.832 50.68 29.464 52.216C27.16 53.752 24.728 54.904 22.168 55.672C19.608 56.504 17.272 56.92 15.16 56.92ZM59.11 55.48C57.894 55.48 56.87 55.064 56.038 54.232C55.206 53.4 54.79 52.216 54.79 50.68C54.79 49.976 54.854 49.336 54.982 48.76C55.11 48.12 55.27 47.576 55.462 47.128C55.782 46.168 56.39 44.92 57.286 43.384C58.182 41.848 59.174 40.248 60.262 38.584C61.35 36.856 62.278 35.32 63.046 33.976C64.006 32.312 64.486 30.872 64.486 29.656C64.486 28.312 63.91 27.256 62.758 26.488C62.31 26.168 61.862 25.88 61.414 25.624C60.966 25.304 60.582 25.016 60.262 24.76L57.574 29.08C56.038 31.192 54.438 33.368 52.774 35.608C51.11 37.848 49.51 39.928 47.974 41.848C46.438 43.704 45.126 45.272 44.038 46.552C43.846 46.744 43.654 46.84 43.462 46.84C43.142 46.84 42.886 46.68 42.694 46.36C42.502 46.04 42.534 45.752 42.79 45.496C45.286 42.68 47.686 39.8 49.99 36.856C52.294 33.912 54.438 30.776 56.422 27.448L58.726 23.512C58.47 23.32 58.054 22.904 57.478 22.264C56.966 21.624 56.454 20.92 55.942 20.152C55.494 19.32 55.27 18.616 55.27 18.04C55.27 17.528 55.43 17.144 55.75 16.888C56.134 16.568 56.774 16.408 57.67 16.408C59.846 16.408 60.902 18.744 60.838 23.416C61.734 24.12 62.726 24.664 63.814 25.048C64.902 25.432 65.926 25.816 66.886 26.2C67.91 26.52 68.742 27 69.382 27.64C70.022 28.28 70.342 29.24 70.342 30.52C70.342 31.608 70.022 32.888 69.382 34.36C68.806 35.768 68.102 37.016 67.27 38.104C66.566 39.064 65.734 40.216 64.774 41.56C63.878 42.904 63.014 44.248 62.182 45.592C61.35 46.936 60.742 48.152 60.358 49.24C60.038 50.072 59.878 50.68 59.878 51.064C59.878 51.896 60.262 52.312 61.03 52.312C61.734 52.312 62.598 52.024 63.622 51.448C64.966 50.744 66.342 49.752 67.75 48.472C69.222 47.128 70.566 45.752 71.782 44.344C72.486 43.64 73.126 42.968 73.702 42.328C74.278 41.624 74.822 40.92 75.334 40.216C75.526 40.024 75.686 39.928 75.814 39.928C76.198 39.928 76.39 40.216 76.39 40.792C76.39 41.112 76.262 41.4 76.006 41.656C74.662 43.256 73.286 44.952 71.878 46.744C70.47 48.472 68.966 50.04 67.366 51.448C66.406 52.216 65.158 53.08 63.622 54.04C62.086 55 60.582 55.48 59.11 55.48ZM81.2853 56.44C78.9173 56.44 77.0293 55.768 75.6213 54.424C74.2133 53.016 73.5093 51.064 73.5093 48.568C73.5093 46.648 73.8613 44.632 74.5653 42.52C75.3333 40.408 76.0693 38.744 76.7733 37.528C78.2453 34.84 80.0053 32.376 82.0533 30.136C84.1653 27.896 86.3093 26.104 88.4853 24.76C90.7253 23.352 92.7733 22.648 94.6293 22.648C96.3573 22.648 97.8293 23.128 99.0453 24.088C100.325 25.048 100.965 26.328 100.965 27.928C100.965 28.568 100.805 29.304 100.485 30.136C100.165 30.968 99.6533 31.832 98.9493 32.728C96.3893 35.992 93.5413 38.552 90.4053 40.408C87.3333 42.2 83.8133 43.544 79.8453 44.44C79.5893 45.272 79.3653 46.104 79.1733 46.936C78.9813 47.704 78.8213 48.44 78.6933 49.144C78.6293 49.464 78.5653 49.784 78.5013 50.104C78.5013 50.36 78.5013 50.648 78.5013 50.968C78.5013 52.248 78.7893 53.176 79.3653 53.752C80.0053 54.264 80.7733 54.52 81.6693 54.52C83.0773 54.52 84.5813 54.168 86.1813 53.464C87.7813 52.696 89.2853 51.832 90.6933 50.872C92.1013 49.912 93.1573 49.144 93.8613 48.568C94.5653 47.928 95.2373 47.288 95.8773 46.648C96.5813 45.944 97.3493 45.176 98.1813 44.344C98.8213 43.64 99.4293 42.968 100.005 42.328C100.581 41.624 101.125 40.92 101.637 40.216C101.829 40.024 101.989 39.928 102.117 39.928C102.501 39.928 102.693 40.216 102.693 40.792C102.693 41.112 102.565 41.4 102.309 41.656C101.157 43.064 100.005 44.472 98.8533 45.88C97.7013 47.224 96.5173 48.536 95.3013 49.816C93.8933 51.288 91.9413 52.76 89.4453 54.232C87.0133 55.704 84.2933 56.44 81.2853 56.44ZM80.4213 43.192C82.0853 42.488 84.0053 41.464 86.1813 40.12C88.4213 38.776 90.5653 37.176 92.6133 35.32C94.7253 33.4 96.4533 31.352 97.7973 29.176C98.2453 28.472 98.4693 27.832 98.4693 27.256C98.4693 26.36 97.9573 25.912 96.9333 25.912C96.2293 25.912 95.3653 26.168 94.3413 26.68C91.1413 28.408 88.3893 30.744 86.0853 33.688C83.7813 36.632 81.8933 39.8 80.4213 43.192ZM107.442 56.44C105.074 56.44 103.186 55.768 101.778 54.424C100.37 53.016 99.6655 51.064 99.6655 48.568C99.6655 46.648 100.018 44.632 100.722 42.52C101.49 40.408 102.226 38.744 102.93 37.528C104.402 34.84 106.162 32.376 108.21 30.136C110.322 27.896 112.466 26.104 114.642 24.76C116.882 23.352 118.93 22.648 120.786 22.648C122.514 22.648 123.986 23.128 125.202 24.088C126.482 25.048 127.122 26.328 127.122 27.928C127.122 28.568 126.962 29.304 126.642 30.136C126.322 30.968 125.81 31.832 125.106 32.728C122.546 35.992 119.698 38.552 116.562 40.408C113.49 42.2 109.97 43.544 106.002 44.44C105.746 45.272 105.522 46.104 105.33 46.936C105.138 47.704 104.978 48.44 104.85 49.144C104.786 49.464 104.722 49.784 104.658 50.104C104.658 50.36 104.658 50.648 104.658 50.968C104.658 52.248 104.946 53.176 105.522 53.752C106.162 54.264 106.93 54.52 107.826 54.52C109.234 54.52 110.738 54.168 112.338 53.464C113.938 52.696 115.442 51.832 116.85 50.872C118.258 49.912 119.314 49.144 120.018 48.568C120.722 47.928 121.394 47.288 122.034 46.648C122.738 45.944 123.506 45.176 124.338 44.344C124.978 43.64 125.586 42.968 126.161 42.328C126.738 41.624 127.282 40.92 127.794 40.216C127.986 40.024 128.146 39.928 128.274 39.928C128.658 39.928 128.85 40.216 128.85 40.792C128.85 41.112 128.722 41.4 128.466 41.656C127.314 43.064 126.162 44.472 125.01 45.88C123.858 47.224 122.674 48.536 121.458 49.816C120.05 51.288 118.098 52.76 115.602 54.232C113.17 55.704 110.45 56.44 107.442 56.44ZM106.578 43.192C108.242 42.488 110.162 41.464 112.338 40.12C114.578 38.776 116.722 37.176 118.77 35.32C120.882 33.4 122.61 31.352 123.954 29.176C124.402 28.472 124.626 27.832 124.626 27.256C124.626 26.36 124.114 25.912 123.09 25.912C122.386 25.912 121.522 26.168 120.498 26.68C117.298 28.408 114.546 30.744 112.242 33.688C109.938 36.632 108.05 39.8 106.578 43.192ZM121.214 55.576C123.966 50.456 126.238 45.528 128.03 40.792C129.886 35.992 131.998 31.16 134.366 26.296C135.07 25.016 135.966 24.152 137.054 23.704C138.142 23.192 139.198 22.936 140.222 22.936C141.054 22.936 141.79 23.032 142.43 23.224C142.238 23.672 141.726 24.568 140.894 25.912C140.126 27.192 139.294 28.664 138.398 30.328C137.758 31.48 136.798 33.272 135.518 35.704C134.238 38.072 133.054 40.536 131.966 43.096C132.542 42.392 133.438 41.24 134.654 39.64C135.87 38.04 137.278 36.312 138.878 34.456C140.478 32.536 142.142 30.712 143.87 28.984C145.662 27.192 147.39 25.752 149.054 24.664C150.782 23.512 152.318 22.936 153.662 22.936C154.686 22.936 155.582 23.256 156.35 23.896C157.118 24.536 157.502 25.4 157.502 26.488C157.502 28.088 156.83 29.976 155.486 32.152C154.142 34.264 152.798 36.344 151.454 38.392C151.198 38.776 150.718 39.512 150.014 40.6C149.374 41.688 148.67 42.936 147.902 44.344C147.134 45.688 146.462 47 145.886 48.28C145.374 49.496 145.118 50.456 145.118 51.16C145.118 51.864 145.406 52.216 145.982 52.216C147.198 52.216 148.446 51.736 149.726 50.776C151.07 49.816 152.35 48.728 153.566 47.512C154.782 46.232 155.742 45.176 156.446 44.344C157.15 43.576 157.79 42.84 158.366 42.136C158.942 41.432 159.518 40.76 160.094 40.12C160.286 39.928 160.446 39.832 160.574 39.832C160.958 39.832 161.15 40.12 161.15 40.696C161.15 41.08 161.022 41.4 160.766 41.656C160.062 42.488 159.358 43.352 158.654 44.248C157.95 45.08 157.214 45.912 156.446 46.744C155.742 47.576 155.006 48.408 154.238 49.24C153.534 50.008 152.798 50.744 152.03 51.448C149.278 54.008 146.718 55.288 144.35 55.288C142.75 55.288 141.662 54.808 141.086 53.848C140.574 52.888 140.318 51.704 140.318 50.296C140.318 48.76 140.734 47.096 141.566 45.304C142.398 43.512 143.422 41.688 144.638 39.832C145.854 37.912 147.07 36.056 148.286 34.264C149.566 32.472 150.622 30.84 151.454 29.368C152.286 27.832 152.702 26.552 152.702 25.528C152.702 25.144 152.478 24.952 152.03 24.952C151.646 24.952 150.878 25.432 149.726 26.392C148.638 27.288 147.454 28.376 146.174 29.656C144.894 30.872 143.678 32.056 142.526 33.208C141.438 34.36 140.702 35.192 140.318 35.704C138.718 37.432 137.15 39.288 135.614 41.272C134.142 43.256 132.734 45.176 131.39 47.032C130.622 48.12 129.95 49.24 129.374 50.392C128.798 51.48 128.158 52.632 127.454 53.848C127.134 54.424 126.686 54.776 126.11 54.904C125.598 54.968 124.894 55.032 123.998 55.096C123.358 55.096 122.846 55.096 122.462 55.096C122.078 55.16 121.662 55.32 121.214 55.576ZM188.403 55.288C184.755 55.288 181.971 54.264 180.051 52.216C178.131 50.168 177.171 47.64 177.171 44.632C177.171 41.56 177.811 38.872 179.091 36.568C180.371 34.264 182.003 32.312 183.987 30.712C186.035 29.112 188.179 27.864 190.419 26.968C189.139 26.264 188.211 25.4 187.635 24.376C187.059 23.352 186.771 21.72 186.771 19.48C186.771 17.56 187.315 15.64 188.403 13.72C189.555 11.8 191.059 10.072 192.915 8.536C194.835 6.936 196.979 5.688 199.347 4.792C201.715 3.832 204.147 3.352 206.643 3.352C208.563 3.352 210.067 4.056 211.155 5.464C212.243 6.872 212.787 8.6 212.787 10.648C212.787 11.928 212.531 13.272 212.019 14.68C211.507 16.088 210.931 17.432 210.291 18.712C209.651 19.992 209.139 21.112 208.755 22.072C208.051 22.072 207.475 21.752 207.027 21.112C206.579 20.408 206.355 19.672 206.355 18.904C206.355 17.368 206.643 16.056 207.219 14.968C207.859 13.88 208.499 12.824 209.139 11.8C209.779 10.712 210.099 9.496 210.099 8.152C210.099 7.96 209.939 7.544 209.619 6.904C209.363 6.2 208.659 5.848 207.507 5.848C205.843 5.848 203.827 6.552 201.459 7.96C199.155 9.368 197.107 11.096 195.315 13.144C194.035 14.68 192.979 16.28 192.147 17.944C191.379 19.544 190.995 20.952 190.995 22.168C190.995 24.152 192.019 25.144 194.067 25.144C195.155 25.144 196.371 25.208 197.715 25.336C199.059 25.4 200.211 25.656 201.171 26.104C202.195 26.552 202.707 27.384 202.707 28.6C200.339 28.536 197.907 28.856 195.411 29.56C192.915 30.2 190.611 31.256 188.499 32.728C186.387 34.136 184.691 35.928 183.411 38.104C182.131 40.216 181.491 42.712 181.491 45.592C181.491 47.256 181.971 48.824 182.931 50.296C183.955 51.768 185.267 52.504 186.867 52.504C188.851 52.504 190.771 52.024 192.627 51.064C194.483 50.04 196.083 48.632 197.427 46.84C198.835 44.984 199.731 42.872 200.115 40.504C199.219 40.696 198.195 40.952 197.043 41.272C195.955 41.528 194.835 41.656 193.683 41.656C191.955 41.656 190.835 41.112 190.323 40.024C189.875 38.936 189.651 37.784 189.651 36.568C190.355 37.016 191.763 37.24 193.875 37.24C195.539 37.24 197.427 37.144 199.539 36.952C200.243 36.888 201.235 36.792 202.515 36.664C203.859 36.472 205.171 36.312 206.451 36.184C207.795 35.992 208.787 35.896 209.427 35.896C210.835 35.896 211.827 36.408 212.403 37.432C212.979 38.456 213.267 39.512 213.267 40.6C212.819 39.896 211.123 39.544 208.179 39.544C206.963 39.544 205.523 39.64 203.859 39.832C203.859 42.648 203.219 45.24 201.939 47.608C200.659 49.912 198.867 51.768 196.562 53.176C194.259 54.584 191.539 55.288 188.403 55.288ZM250.379 56.92C246.859 56.92 244.011 56.28 241.835 55C239.723 53.72 238.187 51.992 237.227 49.816C236.267 47.576 235.787 45.08 235.787 42.328C235.787 38.936 236.427 35.416 237.707 31.768C238.987 28.056 240.747 24.504 242.987 21.112C245.227 17.72 247.787 14.68 250.667 11.992C253.611 9.24 256.747 7.064 260.075 5.464C263.467 3.864 266.891 3.064 270.347 3.064C274.187 3.064 277.003 3.928 278.795 5.656C280.587 7.384 281.483 9.464 281.483 11.896C281.483 13.048 281.291 14.264 280.907 15.544C280.459 16.952 279.915 18.424 279.275 19.96C278.635 21.432 278.059 22.776 277.547 23.992C277.035 25.144 276.683 25.976 276.491 26.488C275.467 26.488 274.763 26.2 274.379 25.624C273.995 25.048 273.803 24.28 273.803 23.32C273.803 22.232 274.027 20.952 274.475 19.48C274.923 18.008 275.435 16.568 276.011 15.16C276.779 13.496 277.163 11.896 277.163 10.36C277.163 8.888 276.747 7.704 275.915 6.808C275.147 5.848 273.899 5.368 272.171 5.368C268.779 5.368 265.547 6.264 262.475 8.056C259.467 9.848 256.683 12.216 254.123 15.16C251.627 18.04 249.451 21.208 247.595 24.664C245.803 28.12 244.395 31.576 243.371 35.032C242.347 38.424 241.835 41.496 241.835 44.248C241.835 47.32 242.443 49.848 243.659 51.832C244.939 53.816 247.339 54.808 250.859 54.808C253.675 54.808 256.299 54.04 258.731 52.504C261.227 50.968 263.563 48.824 265.739 46.072C266.635 44.984 267.371 43.704 267.947 42.232C268.587 40.696 268.939 39.32 269.003 38.104C267.915 38.232 266.763 38.36 265.547 38.488C264.331 38.552 263.115 38.584 261.899 38.584C260.555 38.584 259.275 38.52 258.059 38.392C256.843 38.2 255.819 37.912 254.987 37.528C253.899 37.016 253.323 36.248 253.259 35.224C253.259 35.224 253.515 35.256 254.027 35.32C254.603 35.32 255.307 35.32 256.139 35.32C256.715 35.32 257.355 35.32 258.059 35.32C258.763 35.256 259.499 35.192 260.267 35.128C261.419 35 262.795 34.84 264.395 34.648C266.059 34.392 267.691 34.136 269.291 33.88C270.955 33.624 272.363 33.432 273.515 33.304C274.731 33.112 275.467 33.016 275.723 33.016C279.243 33.016 281.195 34.232 281.579 36.664C281.003 36.472 280.395 36.376 279.755 36.376C278.859 36.376 277.835 36.504 276.683 36.76C275.595 37.016 274.219 37.304 272.555 37.624C272.683 37.88 272.747 38.136 272.747 38.392C272.747 38.648 272.747 38.936 272.747 39.256C272.747 42.008 271.979 44.472 270.443 46.648C268.971 48.824 267.051 50.68 264.683 52.216C262.379 53.752 259.947 54.904 257.387 55.672C254.827 56.504 252.491 56.92 250.379 56.92ZM284.537 55.288C283.321 55.288 282.297 54.904 281.465 54.136C280.633 53.304 280.217 51.896 280.217 49.912C280.217 49.464 280.249 48.984 280.313 48.472C280.377 47.896 280.473 47.288 280.601 46.648C280.921 44.92 281.593 42.712 282.617 40.024C283.641 37.336 284.857 34.488 286.265 31.48C287.673 28.408 289.113 25.464 290.585 22.648C292.057 19.768 293.401 17.304 294.617 15.256C296.985 11.352 299.193 8.344 301.241 6.232C303.289 4.12 305.113 2.68 306.713 1.912C308.313 1.144 309.657 0.792 310.745 0.855999C309.081 2.712 307.257 4.984 305.273 7.672C303.289 10.36 301.177 13.592 298.937 17.368C296.121 22.232 293.657 26.648 291.545 30.616C289.497 34.584 287.737 38.648 286.265 42.808C285.433 45.24 285.017 47.224 285.017 48.76C285.017 50.936 285.753 52.024 287.225 52.024C288.377 52.024 289.657 51.448 291.065 50.296C292.537 49.144 293.689 48.12 294.521 47.224C295.801 45.944 296.921 44.76 297.881 43.672C298.905 42.52 299.897 41.368 300.857 40.216C301.049 40.024 301.209 39.928 301.337 39.928C301.721 39.928 301.913 40.216 301.913 40.792C301.913 41.112 301.785 41.4 301.529 41.656C300.825 42.488 300.121 43.352 299.417 44.248C298.777 45.08 298.073 45.912 297.305 46.744C296.665 47.576 295.929 48.408 295.097 49.24C294.329 50.008 293.561 50.744 292.793 51.448C291.705 52.472 290.393 53.368 288.857 54.136C287.321 54.904 285.881 55.288 284.537 55.288ZM305.792 55.672C303.424 55.672 301.632 54.904 300.416 53.368C299.264 51.832 298.688 49.88 298.688 47.512C298.688 44.824 299.392 41.88 300.8 38.68C302.08 35.8 303.712 33.176 305.696 30.808C307.744 28.44 309.952 26.552 312.32 25.144C314.688 23.672 316.96 22.936 319.136 22.936C321.76 22.936 323.68 23.736 324.896 25.336C326.112 26.936 326.72 28.952 326.72 31.384C326.72 34.008 326.048 36.824 324.704 39.832C324 41.368 322.976 43.032 321.632 44.824C320.288 46.616 318.752 48.344 317.024 50.008C315.296 51.672 313.44 53.048 311.456 54.136C309.536 55.16 307.648 55.672 305.792 55.672ZM307.616 53.752C308.96 53.752 310.304 53.304 311.648 52.408C312.992 51.448 314.272 50.296 315.488 48.952C316.704 47.608 317.76 46.264 318.656 44.92C319.616 43.512 320.32 42.328 320.768 41.368C321.856 39.32 322.656 37.368 323.168 35.512C323.68 33.592 323.936 31.928 323.936 30.52C323.936 27.448 322.784 25.912 320.48 25.912C319.072 25.912 317.568 26.488 315.968 27.64C314.432 28.728 312.928 30.2 311.456 32.056C309.984 33.912 308.704 35.992 307.616 38.296C305.312 42.904 304.16 46.648 304.16 49.528C304.16 51.832 304.896 53.176 306.368 53.56C306.56 53.624 306.752 53.688 306.944 53.752C307.136 53.752 307.36 53.752 307.616 53.752ZM351.117 55.768C349.005 55.768 347.437 55.064 346.413 53.656C345.453 52.184 344.973 50.456 344.973 48.472C344.973 47.32 345.101 46.264 345.357 45.304C343.565 47.928 341.453 50.2 339.021 52.12C336.653 54.04 334.541 55 332.685 55C331.085 55 329.901 54.488 329.133 53.464C328.429 52.44 328.077 51.288 328.077 50.008C328.077 47.96 328.493 45.72 329.325 43.288C330.157 40.856 331.245 38.424 332.589 35.992C333.997 33.56 335.565 31.352 337.293 29.368C339.021 27.384 340.781 25.848 342.573 24.76C340.973 24.824 339.277 25.208 337.484 25.912C335.693 26.552 334.157 26.872 332.877 26.872C331.853 26.872 330.957 26.456 330.189 25.624C329.485 24.728 329.133 23.992 329.133 23.416C329.133 22.968 329.357 22.744 329.805 22.744C330.061 22.744 330.413 22.872 330.861 23.128C331.501 23.512 332.301 23.768 333.261 23.896C334.221 24.024 335.245 24.088 336.333 24.088C337.805 24.088 339.213 24.024 340.557 23.896C341.965 23.704 343.021 23.576 343.725 23.512C343.917 23.448 344.141 23.416 344.397 23.416C344.653 23.416 344.909 23.416 345.165 23.416C345.805 23.416 346.413 23.48 346.989 23.608C347.565 23.736 347.853 23.992 347.853 24.376C347.853 24.824 347.501 25.304 346.797 25.816C345.901 26.456 344.685 27.672 343.149 29.464C341.677 31.256 340.141 33.336 338.541 35.704C337.005 38.072 335.661 40.472 334.509 42.904C333.933 44.312 333.453 45.656 333.069 46.936C332.749 48.216 332.589 49.304 332.589 50.2C332.589 51.8 333.165 52.6 334.317 52.6C335.277 52.6 337.645 50.328 341.421 45.784C344.045 42.584 346.189 39.32 347.853 35.992C349.517 32.664 351.117 30.008 352.653 28.024C353.037 27.512 353.485 27.128 353.997 26.872C354.573 26.616 355.085 26.488 355.533 26.488C356.173 26.488 356.717 26.648 357.165 26.968C357.613 27.288 357.837 27.704 357.837 28.216C357.837 28.728 357.581 29.336 357.069 30.04C356.685 30.488 356.141 31.352 355.437 32.632C354.733 33.912 353.965 35.416 353.133 37.144C352.365 38.872 351.661 40.664 351.021 42.52C350.381 44.312 349.933 46.04 349.677 47.704C349.613 48.152 349.549 48.6 349.484 49.048C349.484 49.432 349.484 49.816 349.484 50.2C349.484 51.608 349.677 52.6 350.061 53.176C350.509 53.752 350.989 54.008 351.501 53.944C352.781 53.944 354.221 53.304 355.821 52.024C357.485 50.744 359.149 49.016 360.813 46.84C362.541 44.664 364.141 42.232 365.613 39.544C367.085 36.856 368.301 34.104 369.261 31.288C370.221 28.472 370.765 25.784 370.893 23.224C370.893 23.032 370.893 22.808 370.893 22.552C370.957 22.232 370.989 21.912 370.989 21.592C370.989 20.312 370.765 18.936 370.317 17.464C369.933 15.992 369.037 15.256 367.629 15.256C366.733 15.256 365.709 15.608 364.557 16.312C364.237 16.504 364.045 16.536 363.981 16.408C363.981 16.216 364.077 15.992 364.269 15.736C364.525 15.544 365.037 15.224 365.805 14.776C366.573 14.328 367.373 14.104 368.205 14.104C370.957 14.104 372.941 14.776 374.156 16.12C375.373 17.464 375.981 19.256 375.981 21.496C375.981 24.824 375.021 28.696 373.101 33.112C371.181 37.528 368.525 41.912 365.133 46.264C363.149 48.824 360.909 51.064 358.413 52.984C355.981 54.84 353.549 55.768 351.117 55.768Z" fill="#4B715F"/>
</svg>
